<svg viewBox="0 0 16.74 16.78" width="20px" xmlns="http://www.w3.org/2000/svg"><title>Search</title><g  data-name="Layer 2" id="Layer_2"><g data-name="Layer 2" id="Layer_2-2"><path fill="#fff" d="M15.47,16.78a.86.86,0,0,1-.67-.28c-.8-.87-1.57-1.72-2.37-2.53a2.5,2.5,0,0,1-.72-1.24,4.83,4.83,0,0,0-.18-.62L11,11.63l-.08.06a6.57,6.57,0,0,1-4.23,1.57,4.87,4.87,0,0,1-.66,0,6.39,6.39,0,0,1-4.51-2.39A6.63,6.63,0,0,1,6.63,0a6.55,6.55,0,0,1,3.9,1.28,6.39,6.39,0,0,1,2.56,3.9,6.6,6.6,0,0,1-1.4,5.74l0,.06.33.54,1.41.4c1.11,1,2.15,2,3.18,2.95a.39.39,0,0,1,.1.15,1.42,1.42,0,0,1-.14,1.23,1.21,1.21,0,0,1-.92.53ZM6.63,1.08A5.56,5.56,0,0,0,1.08,6.63a5.55,5.55,0,0,0,5.55,5.56,5.57,5.57,0,0,0,5.56-5.56,5.51,5.51,0,0,0-1.63-3.92A5.47,5.47,0,0,0,6.63,1.08v0Z"></path></g></g></svg>